Coordinates
version=1
nRows=43
nColumns=12
inDegrees=yes

Units are S.I. units (second, meters, Newtons, ...)
Angles are in degrees

endheader
time	SC_y	SC_z	SC_x	AC_y	AC_z	AC_x	GH_y	GH_z	GH_yy	EL_x	PS_y
       0.0              -51.95          30.67          33.38          43.65         -19.01         -6.295          59.81          68.84          125.7          82.23          145.3
  0.009951              -51.95          30.67          33.39          43.65         -19.01         -6.295          59.79          68.84          125.6          82.23          145.3
    0.0199              -51.95          30.67          33.39          43.66         -19.01         -6.296          59.76          68.83          125.6          82.22          145.3
   0.02985              -51.95          30.67          33.39          43.66          -19.0         -6.296          59.73          68.82          125.6          82.21          145.3
    0.0398              -51.95          30.67          33.39          43.66          -19.0         -6.296           59.7          68.81          125.6           82.2          145.3
   0.04976              -51.95          30.67           33.4          43.67          -19.0         -6.297          59.67          68.79          125.6           82.2          145.3
   0.05971              -51.94          30.67           33.4          43.67          -19.0         -6.297          59.63          68.78          125.5          82.19          145.3
   0.06966              -51.94          30.68           33.4          43.68         -18.99         -6.298           59.6          68.77          125.5          82.18          145.3
   0.07961              -51.94          30.68           33.4          43.68         -18.99         -6.298          59.56          68.75          125.5          82.17          145.3
   0.08956              -51.94          30.68          33.41          43.69         -18.99         -6.298          59.52          68.74          125.4          82.15          145.2
   0.09951              -51.94          30.68          33.41          43.69         -18.98         -6.299          59.47          68.72          125.4          82.14          145.2
    0.1095              -51.93          30.69          33.42           43.7         -18.98           -6.3          59.42           68.7          125.4          82.13          145.2
    0.1194              -51.93          30.69          33.42          43.71         -18.97           -6.3          59.37          68.69          125.3          82.11          145.2
    0.1294              -51.93          30.69          33.42          43.71         -18.97         -6.301          59.31          68.67          125.3           82.1          145.2
    0.1393              -51.93          30.69          33.43          43.72         -18.96         -6.301          59.25          68.64          125.2          82.08          145.2
    0.1493              -51.92           30.7          33.43          43.73         -18.96         -6.302          59.19          68.62          125.2          82.07          145.2
    0.1592              -51.92           30.7          33.44          43.74         -18.95         -6.303          59.11          68.59          125.1          82.05          145.2
    0.1692              -51.91          30.71          33.45          43.75         -18.94         -6.304          59.03          68.57          125.1          82.02          145.2
    0.1791              -51.91          30.71          33.45          43.76         -18.94         -6.305          58.95          68.53          125.0           82.0          145.2
    0.1891              -51.91          30.71          33.46          43.77         -18.93         -6.306          58.85           68.5          124.9          81.98          145.2
     0.199               -51.9          30.72          33.47          43.79         -18.92         -6.307          58.75          68.46          124.9          81.95          145.2
     0.209              -51.89          30.73          33.48           43.8         -18.91         -6.308          58.64          68.42          124.8          81.92          145.2
    0.2189              -51.89          30.73          33.49          43.82          -18.9          -6.31          58.51          68.38          124.7          81.88          145.2
    0.2289              -51.88          30.74           33.5          43.84         -18.89         -6.311          58.37          68.33          124.6          81.85          145.2
    0.2388              -51.87          30.75          33.51          43.86         -18.87         -6.313          58.22          68.27          124.5          81.81          145.2
    0.2488              -51.87          30.76          33.53          43.88         -18.86         -6.315          58.05          68.21          124.3          81.76          145.2
    0.2587              -51.86          30.77          33.54          43.91         -18.84         -6.317          57.85          68.14          124.2          81.71          145.2
    0.2687              -51.84          30.78          33.56          43.93         -18.82          -6.32          57.64          68.06          124.0          81.65          145.2
    0.2786              -51.83          30.79          33.58          43.97          -18.8         -6.322          57.39          67.97          123.8          81.58          145.2
    0.2886              -51.82           30.8           33.6           44.0         -18.78         -6.326          57.11          67.87          123.6          81.51          145.1
    0.2985               -51.8          30.82          33.63          44.05         -18.75         -6.329          56.79          67.76          123.4          81.42          145.1
    0.3085              -51.78          30.84          33.66          44.09         -18.72         -6.333          56.43          67.63          123.1          81.32          145.1
    0.3184              -51.76          30.86          33.69          44.15         -18.68         -6.338          56.01          67.47          122.8          81.21          145.1
    0.3284              -51.74          30.89          33.73          44.21         -18.64         -6.344          55.52           67.3          122.4          81.08          145.1
    0.3383              -51.71          30.91          33.78          44.29         -18.59          -6.35          54.94          67.09          122.0          80.92          145.1
    0.3483              -51.68          30.95          33.83          44.38         -18.53         -6.358          54.27          66.85          121.5          80.74          145.0
    0.3582              -51.64          30.99           33.9          44.48         -18.46         -6.367          53.46          66.56          120.9          80.53          145.0
    0.3682              -51.59          31.04          33.97          44.61         -18.38         -6.378           52.5          66.21          120.2          80.27          145.0
    0.3781              -51.53           31.1          34.07          44.76         -18.28         -6.391          51.34          65.79          119.3          79.95          144.9
    0.3881              -51.46          31.17          34.18          44.95         -18.15         -6.407          49.91          65.28          118.2          79.57          144.9
     0.398              -51.37          31.26          34.32          45.18          -18.0         -6.427          48.16          64.64          116.9           79.1          144.8
     0.408              -51.26          31.37           34.5          45.47         -17.81         -6.452          45.97          63.85          115.2          78.51          144.7
    0.4179              -51.12          31.51          34.72          45.83         -17.57         -6.483          43.21          62.86          113.1          77.77          144.6
